<svg width="100" height="48" viewBox="0 0 100 48" fill="none" xmlns="http://www.w3.org/2000/svg">
<path d="M0 10C0 4.47715 4.47715 0 10 0H100V48H0V10Z" fill="white"/>
<path d="M18.64 35L25.768 11.6H33.256L40.384 35H33.832L31.168 23.624C30.88 22.496 30.592 21.272 30.304 19.952C30.016 18.632 29.728 17.384 29.44 16.208H29.296C29.056 17.384 28.792 18.632 28.504 19.952C28.216 21.272 27.928 22.496 27.64 23.624L24.976 35H18.64ZM23.752 30.032V25.244H35.2V30.032H23.752ZM49.0234 35.432C47.2954 35.432 45.8194 35.072 44.5954 34.352C43.3954 33.632 42.3994 32.48 41.6074 30.896L45.4954 28.232C45.7834 28.808 46.1914 29.264 46.7194 29.6C47.2474 29.936 47.7994 30.104 48.3754 30.104C49.3114 30.104 50.0074 29.828 50.4634 29.276C50.9434 28.724 51.1834 27.68 51.1834 26.144V11.6H57.3754V26.648C57.3754 28.256 57.0754 29.732 56.4754 31.076C55.8754 32.396 54.9514 33.452 53.7034 34.244C52.4794 35.036 50.9194 35.432 49.0234 35.432Z" fill="black"/>
<path d="M72.6946 35.432C70.6786 35.432 68.8066 35 67.0786 34.136C65.3746 33.248 63.9946 31.916 62.9386 30.14C61.9066 28.364 61.3906 26.144 61.3906 23.48C61.3906 21.512 61.6906 19.772 62.2906 18.26C62.9146 16.724 63.7546 15.428 64.8106 14.372C65.8906 13.316 67.1026 12.524 68.4466 11.996C69.8146 11.444 71.2306 11.168 72.6946 11.168C74.2546 11.168 75.6466 11.468 76.8706 12.068C78.1186 12.668 79.1506 13.4 79.9666 14.264L76.7266 18.008C76.1506 17.504 75.5506 17.132 74.9266 16.892C74.3266 16.628 73.6306 16.496 72.8386 16.496C71.9506 16.496 71.1106 16.772 70.3186 17.324C69.5506 17.876 68.9266 18.656 68.4466 19.664C67.9666 20.672 67.7266 21.872 67.7266 23.264C67.7266 24.728 67.9546 25.976 68.4106 27.008C68.8666 28.016 69.5026 28.784 70.3186 29.312C71.1346 29.84 72.0706 30.104 73.1266 30.104C73.9666 30.104 74.7226 29.936 75.3946 29.6C76.0666 29.24 76.6306 28.832 77.0866 28.376L80.1826 32.048C79.1506 33.2 77.9986 34.052 76.7266 34.604C75.4786 35.156 74.1346 35.432 72.6946 35.432Z" fill="#CCCCCC"/>
</svg>
