<svg width="48" height="48" viewBox="0 0 48 48" fill="none" xmlns="http://www.w3.org/2000/svg">
<g clip-path="url(#clip0_201_3470)">
<path d="M0 5C0 2.23858 2.23858 0 5 0H43C45.7614 0 48 2.23858 48 5V43C48 45.7614 45.7614 48 43 48H5C2.23858 48 0 45.7614 0 43V5Z" fill="white"/>
<rect x="8" y="8" width="22" height="32" fill="black"/>
<rect x="30" y="8" width="10" height="32" fill="#CCCCCC"/>
<path d="M14.2083 16.2125C14.282 15.906 14.718 15.906 14.7917 16.2125L16.576 23.6298C16.6214 23.8185 16.4784 24 16.2843 24H12.7157C12.5216 24 12.3786 23.8185 12.424 23.6298L14.2083 16.2125Z" fill="#A8C0CD"/>
</g>
<defs>
<clipPath id="clip0_201_3470">
<path d="M0 5C0 2.23858 2.23858 0 5 0H43C45.7614 0 48 2.23858 48 5V43C48 45.7614 45.7614 48 43 48H5C2.23858 48 0 45.7614 0 43V5Z" fill="white"/>
</clipPath>
</defs>
</svg>
