<?xml version="1.0" encoding="utf-8"?>
<!-- Generator: Adobe Illustrator 28.0.0, SVG Export Plug-In . SVG Version: 6.00 Build 0)  -->
<svg version="1.1" id="Layer_1" xmlns="http://www.w3.org/2000/svg" xmlns:xlink="http://www.w3.org/1999/xlink" x="0px" y="0px"
	 viewBox="0 0 100 48" style="enable-background:new 0 0 100 48;" xml:space="preserve">
<style type="text/css">
	.st0{fill:#FFFFFF;stroke:#000000;stroke-miterlimit:10;}
	.st1{fill:#CCCCCC;}
</style>
<path class="st0" d="M0,10C0,4.5,4.5,0,10,0h90v48H0V10z"/>
<path d="M18.6,35l7.1-23.4h7.5L40.4,35h-6.6l-2.7-11.4c-0.3-1.1-0.6-2.4-0.9-3.7c-0.3-1.3-0.6-2.6-0.9-3.7h-0.1
	c-0.2,1.2-0.5,2.4-0.8,3.7s-0.6,2.5-0.9,3.7L25,35H18.6z M23.8,30v-4.8h11.4V30H23.8z M49,35.4c-1.7,0-3.2-0.4-4.4-1.1
	c-1.2-0.7-2.2-1.9-3-3.5l3.9-2.7c0.3,0.6,0.7,1,1.2,1.4s1.1,0.5,1.7,0.5c0.9,0,1.6-0.3,2.1-0.8c0.5-0.6,0.7-1.6,0.7-3.1V11.6h6.2v15
	c0,1.6-0.3,3.1-0.9,4.4c-0.6,1.3-1.5,2.4-2.8,3.2C52.5,35,50.9,35.4,49,35.4z"/>
<path class="st1" d="M72.7,35.4c-2,0-3.9-0.4-5.6-1.3c-1.7-0.9-3.1-2.2-4.1-4c-1-1.8-1.5-4-1.5-6.7c0-2,0.3-3.7,0.9-5.2
	c0.6-1.5,1.5-2.8,2.5-3.9c1.1-1.1,2.3-1.8,3.6-2.4c1.4-0.6,2.8-0.8,4.2-0.8c1.6,0,3,0.3,4.2,0.9c1.2,0.6,2.3,1.3,3.1,2.2L76.7,18
	c-0.6-0.5-1.2-0.9-1.8-1.1c-0.6-0.3-1.3-0.4-2.1-0.4c-0.9,0-1.7,0.3-2.5,0.8c-0.8,0.6-1.4,1.3-1.9,2.3c-0.5,1-0.7,2.2-0.7,3.6
	c0,1.5,0.2,2.7,0.7,3.7c0.5,1,1.1,1.8,1.9,2.3c0.8,0.5,1.8,0.8,2.8,0.8c0.8,0,1.6-0.2,2.3-0.5c0.7-0.4,1.2-0.8,1.7-1.2l3.1,3.7
	c-1,1.2-2.2,2-3.5,2.6C75.5,35.2,74.1,35.4,72.7,35.4z"/>
</svg>
