<svg width="80" height="38" viewBox="0 0 80 38" fill="none" xmlns="http://www.w3.org/2000/svg">
<path d="M10 1H79V37H1V10C1 5.02944 5.02944 1 10 1Z" fill="white"/>
<path d="M10 1H79V37H1V10C1 5.02944 5.02944 1 10 1Z" stroke="black" stroke-width="2"/>
<path d="M13.7 28L19.64 8.5H25.88L31.82 28H26.36L24.14 18.52C23.9 17.58 23.66 16.56 23.42 15.46C23.18 14.36 22.94 13.32 22.7 12.34H22.58C22.38 13.32 22.16 14.36 21.92 15.46C21.68 16.56 21.44 17.58 21.2 18.52L18.98 28H13.7ZM17.96 23.86V19.87H27.5V23.86H17.96ZM39.0195 28.36C37.5795 28.36 36.3495 28.06 35.3295 27.46C34.3295 26.86 33.4995 25.9 32.8395 24.58L36.0795 22.36C36.3195 22.84 36.6595 23.22 37.0995 23.5C37.5395 23.78 37.9995 23.92 38.4795 23.92C39.2595 23.92 39.8395 23.69 40.2195 23.23C40.6195 22.77 40.8195 21.9 40.8195 20.62V8.5H45.9795V21.04C45.9795 22.38 45.7295 23.61 45.2295 24.73C44.7295 25.83 43.9595 26.71 42.9195 27.37C41.8995 28.03 40.5995 28.36 39.0195 28.36Z" fill="black"/>
<path d="M58.7455 28.36C57.0655 28.36 55.5055 28 54.0655 27.28C52.6455 26.54 51.4955 25.43 50.6155 23.95C49.7555 22.47 49.3255 20.62 49.3255 18.4C49.3255 16.76 49.5755 15.31 50.0755 14.05C50.5955 12.77 51.2955 11.69 52.1755 10.81C53.0755 9.93 54.0855 9.27 55.2055 8.83C56.3455 8.37 57.5255 8.14 58.7455 8.14C60.0455 8.14 61.2055 8.39 62.2255 8.89C63.2655 9.39 64.1255 10 64.8055 10.72L62.1055 13.84C61.6255 13.42 61.1255 13.11 60.6055 12.91C60.1055 12.69 59.5255 12.58 58.8655 12.58C58.1255 12.58 57.4255 12.81 56.7655 13.27C56.1255 13.73 55.6055 14.38 55.2055 15.22C54.8055 16.06 54.6055 17.06 54.6055 18.22C54.6055 19.44 54.7955 20.48 55.1755 21.34C55.5555 22.18 56.0855 22.82 56.7655 23.26C57.4455 23.7 58.2255 23.92 59.1055 23.92C59.8055 23.92 60.4355 23.78 60.9955 23.5C61.5555 23.2 62.0255 22.86 62.4055 22.48L64.9855 25.54C64.1255 26.5 63.1655 27.21 62.1055 27.67C61.0655 28.13 59.9455 28.36 58.7455 28.36Z" fill="#E2663F"/>
</svg>
